<svg id="Component_96_2" data-name="Component 96 – 2" xmlns="http://www.w3.org/2000/svg" width="288.184" height="266.774" viewBox="0 0 288.184 266.774">
  <path id="Path_592" data-name="Path 592" d="M123.2,202.984a1,1,0,0,1-1-1v-2.551a1,1,0,0,1,2,0v2.551A1,1,0,0,1,123.2,202.984Z" transform="translate(117 -93.619)" fill="#fff"/>
  <path id="Path_593" data-name="Path 593" d="M123.2,210.207a1,1,0,0,1-1-1v-2.551a1,1,0,0,1,2,0v2.551A1,1,0,0,1,123.2,210.207Z" transform="translate(117 -93.619)" fill="#fff"/>
  <path id="Path_595" data-name="Path 595" d="M120.86,205.32h-2.552a1,1,0,0,1,0-2h2.552a1,1,0,1,1,0,2Z" transform="translate(117 -93.619)" fill="#fff"/>
  <path id="Path_599" data-name="Path 599" d="M145.394,248.506h-2.551a1,1,0,0,1,0-2h2.551a1,1,0,0,1,0,2Z" transform="translate(-78 13.381)" fill="#fff"/>
  <circle id="Ellipse_5" data-name="Ellipse 5" cx="77" cy="77" r="77" transform="translate(68.348 82.537)" fill="#fff"/>
  <path id="Polygon_31" data-name="Polygon 31" d="M32.4,6.153a4,4,0,0,1,6.963,0L68.384,57.447a4,4,0,0,1-3.481,5.97H6.859a4,4,0,0,1-3.481-5.97Z" transform="translate(185.311 123.82) rotate(90)" fill="#71bf44"/>
  <path id="Path_587" data-name="Path 587" d="M179.576,222.666H157.371l-.02,0h-15.2a1.157,1.157,0,1,1,0-2.314h23.713a3.608,3.608,0,1,0,0-7.217h-15.12a1.226,1.226,0,1,0,0,2.451h15.12a1.157,1.157,0,0,1,0,2.314H142.154a3.609,3.609,0,1,0,0,7.218h22.2l.02,0h15.2a1.157,1.157,0,0,1,0,2.314H155.862a3.609,3.609,0,0,0,0,7.218h8.81l.023,0h1.163a1.158,1.158,0,0,1,0,2.315H87.863a1.226,1.226,0,1,0,0,2.451h77.995a3.608,3.608,0,1,0,0-7.217h-7.426l-.024,0h-2.546a1.157,1.157,0,0,1,0-2.314h23.714a3.609,3.609,0,0,0,0-7.218Z" transform="translate(105 -182.619)" fill="#fff"/>
  <path id="Path_596" data-name="Path 596" d="M175.089,239.591a3.441,3.441,0,1,1,3.406-3.441A3.427,3.427,0,0,1,175.089,239.591Zm0-5.064a1.623,1.623,0,1,0,1.589,1.623A1.608,1.608,0,0,0,175.089,234.527Z" transform="translate(105 -182.619)" fill="#fff"/>
  <path id="Path_588" data-name="Path 588" d="M140.887,195.37a1,1,0,0,1-1-1v-2.55a1,1,0,0,1,2,0v2.55A1,1,0,0,1,140.887,195.37Z" transform="translate(-135 -137.619)" fill="#fff"/>
  <path id="Path_589" data-name="Path 589" d="M140.887,202.593a1,1,0,0,1-1-1v-2.551a1,1,0,0,1,2,0v2.551A1,1,0,0,1,140.887,202.593Z" transform="translate(-135 -137.619)" fill="#fff"/>
  <path id="Path_590" data-name="Path 590" d="M145.773,197.706h-2.55a1,1,0,1,1,0-2h2.55a1,1,0,0,1,0,2Z" transform="translate(-135 -137.619)" fill="#fff"/>
  <path id="Path_591" data-name="Path 591" d="M138.551,197.706H136a1,1,0,0,1,0-2h2.551a1,1,0,1,1,0,2Z" transform="translate(-135 -137.619)" fill="#fff"/>
  <path id="Path_594" data-name="Path 594" d="M128.082,205.32h-2.55a1,1,0,0,1,0-2h2.55a1,1,0,1,1,0,2Z" transform="translate(117 -93.619)" fill="#fff"/>
  <path id="Path_592-2" data-name="Path 592" d="M123.2,202.984a1,1,0,0,1-1-1v-2.551a1,1,0,0,1,2,0v2.551A1,1,0,0,1,123.2,202.984Z" transform="translate(-105 -133.619)" fill="#fff"/>
  <path id="Path_593-2" data-name="Path 593" d="M123.2,210.207a1,1,0,0,1-1-1v-2.551a1,1,0,0,1,2,0v2.551A1,1,0,0,1,123.2,210.207Z" transform="translate(-105 -133.619)" fill="#fff"/>
  <path id="Path_594-2" data-name="Path 594" d="M128.082,205.32h-2.55a1,1,0,0,1,0-2h2.55a1,1,0,1,1,0,2Z" transform="translate(-105 -133.619)" fill="#fff"/>
  <path id="Path_595-2" data-name="Path 595" d="M120.86,205.32h-2.552a1,1,0,0,1,0-2h2.552a1,1,0,1,1,0,2Z" transform="translate(-105 -133.619)" fill="#fff"/>
  <path id="Path_597" data-name="Path 597" d="M140.507,246.17a1,1,0,0,1-1-1v-2.551a1,1,0,0,1,2,0v2.551A1,1,0,0,1,140.507,246.17Z" transform="translate(100 -241.619)" fill="#fff"/>
  <path id="Path_598" data-name="Path 598" d="M140.507,253.393a1,1,0,0,1-1-1v-2.551a1,1,0,0,1,2,0v2.551A1,1,0,0,1,140.507,253.393Z" transform="translate(100 -241.619)" fill="#fff"/>
  <path id="Path_599-2" data-name="Path 599" d="M145.394,248.506h-2.551a1,1,0,0,1,0-2h2.551a1,1,0,0,1,0,2Z" transform="translate(100 -241.619)" fill="#fff"/>
  <path id="Path_600" data-name="Path 600" d="M138.171,248.506H135.62a1,1,0,0,1,0-2h2.551a1,1,0,0,1,0,2Z" transform="translate(100 -241.619)" fill="#fff"/>
  <path id="Path_597-2" data-name="Path 597" d="M140.507,246.17a1,1,0,0,1-1-1v-2.551a1,1,0,0,1,2,0v2.551A1,1,0,0,1,140.507,246.17Z" transform="translate(-78 13.381)" fill="#fff"/>
  <path id="Path_598-2" data-name="Path 598" d="M140.507,253.393a1,1,0,0,1-1-1v-2.551a1,1,0,0,1,2,0v2.551A1,1,0,0,1,140.507,253.393Z" transform="translate(-78 13.381)" fill="#fff"/>
  <path id="Path_600-2" data-name="Path 600" d="M138.171,248.506H135.62a1,1,0,0,1,0-2h2.551a1,1,0,0,1,0,2Z" transform="translate(-78 13.381)" fill="#fff"/>
</svg>
