<svg xmlns="http://www.w3.org/2000/svg" width="119.394" height="70.989" viewBox="0 0 119.394 70.989">
  <g id="Group_1136" data-name="Group 1136" transform="translate(-64 -182.156)">
    <path id="Path_587" data-name="Path 587" d="M179.576,222.666H157.371l-.02,0h-15.2a1.157,1.157,0,1,1,0-2.314h23.713a3.608,3.608,0,1,0,0-7.217h-15.12a1.226,1.226,0,1,0,0,2.451h15.12a1.157,1.157,0,0,1,0,2.314H142.154a3.609,3.609,0,1,0,0,7.218h22.2l.02,0h15.2a1.157,1.157,0,0,1,0,2.314H155.862a3.609,3.609,0,0,0,0,7.218h8.81l.023,0h1.163a1.158,1.158,0,0,1,0,2.315H125.237a1.226,1.226,0,1,0,0,2.451h40.621a3.608,3.608,0,1,0,0-7.217h-7.426l-.024,0h-2.546a1.157,1.157,0,0,1,0-2.314h23.714a3.609,3.609,0,0,0,0-7.218Z" fill="#b0b0b0"/>
    <path id="Path_596" data-name="Path 596" d="M175.089,239.591a3.441,3.441,0,1,1,3.406-3.441A3.427,3.427,0,0,1,175.089,239.591Zm0-5.064a1.623,1.623,0,1,0,1.589,1.623A1.608,1.608,0,0,0,175.089,234.527Z" fill="#b0b0b0"/>
    <path id="Path_602" data-name="Path 602" d="M91.111,249.758q-3.234,0-6.456-.055a1.25,1.25,0,0,1-1.228-1.25c0-4.4,5.128-9.631,10.254-10.694,1.562-4.438,6.947-7.578,13.206-7.578,6.76,0,12.423,3.677,13.479,8.552,4.835.666,7.1,5.717,7.1,9.207a1.249,1.249,0,0,1-1.241,1.25c-5.315.037-10.723.16-15.952.279C103.986,249.611,97.541,249.758,91.111,249.758Zm35.1-1.818h0Zm-40.1-.714c8.042.108,16.2-.079,24.1-.256,4.792-.11,9.734-.222,14.624-.269-.43-2.306-2.015-5.541-5.562-5.541A1.251,1.251,0,0,1,118.029,240c-.3-4.105-5.192-7.32-11.142-7.32-5.4,0-10.138,2.783-11.014,6.473a1.25,1.25,0,0,1-1.072.952C91.138,240.535,87.021,244.056,86.111,247.226Z" fill="#b0b0b0"/>
    <path id="Path_603" data-name="Path 603" d="M126.392,237.53l-3.563-10.572h2.26a1.249,1.249,0,0,0,1.235-1.443l-.8-5.129a1.25,1.25,0,0,0-1.025-1.039l-20.307-3.458-1.547-.264,4.627-14.127a1.25,1.25,0,0,0-2.379-.768l-5.075,15.515a1.249,1.249,0,0,0,.805,1.573,1.183,1.183,0,0,0,.248.039l.01,0,2.891.493,19.421,3.306.438,2.8H70.059l.472-3.015,22.265-3.58c.027,0,.047-.021.073-.027a1.231,1.231,0,0,0,.738-.471c.01-.013.013-.029.022-.043a1.248,1.248,0,0,0,.159-.308l10.826-33.223a1.25,1.25,0,0,0-2.379-.77l-10.591,32.5-22.406,3.6A1.25,1.25,0,0,0,68.2,220.16l-.838,5.355a1.249,1.249,0,0,0,1.235,1.443h2.271l-2.475,7.5a1.248,1.248,0,0,0,.813,1.584l11.582,3.63a1.25,1.25,0,1,0,.748-2.385l-10.371-3.251,2.336-7.074h1.747l-1.658,4.975a1.25,1.25,0,0,0,.791,1.581,1.237,1.237,0,0,0,.395.064,1.252,1.252,0,0,0,1.186-.854l1.921-5.766h1.968l-2.023,6.227a1.25,1.25,0,0,0,2.378.773l2.275-7h1.963l-2.506,7.7a1.25,1.25,0,1,0,2.377.774l2.757-8.476h1.974L85.82,237.1a1.25,1.25,0,1,0,2.382.758l3.468-10.9h28.521l3.831,11.371a1.251,1.251,0,0,0,2.37-.8Z" fill="#b0b0b0"/>
    <path id="Path_604" data-name="Path 604" d="M91.1,252.147c0-3.966,5.041-7.181,11.259-7.181s11.26,3.215,11.26,7.181" fill="#b0b0b0"/>
    <path id="Path_605" data-name="Path 605" d="M113.621,253.145a1,1,0,0,1-1-1c0-3.351-4.7-6.182-10.261-6.182s-10.26,2.831-10.26,6.182a1,1,0,1,1-2,0c0-4.585,5.384-8.178,12.257-8.178s12.257,3.593,12.257,8.178A1,1,0,0,1,113.621,253.145Z" fill="#b0b0b0"/>
    <g id="Group_1133" data-name="Group 1133" transform="translate(-71 8)">
      <path id="Path_588" data-name="Path 588" d="M140.887,195.37a1,1,0,0,1-1-1v-2.55a1,1,0,0,1,2,0v2.55A1,1,0,0,1,140.887,195.37Z" fill="#b0b0b0"/>
      <path id="Path_589" data-name="Path 589" d="M140.887,202.593a1,1,0,0,1-1-1v-2.551a1,1,0,0,1,2,0v2.551A1,1,0,0,1,140.887,202.593Z" fill="#b0b0b0"/>
      <path id="Path_590" data-name="Path 590" d="M145.773,197.706h-2.55a1,1,0,1,1,0-2h2.55a1,1,0,0,1,0,2Z" fill="#b0b0b0"/>
      <path id="Path_591" data-name="Path 591" d="M138.551,197.706H136a1,1,0,0,1,0-2h2.551a1,1,0,1,1,0,2Z" fill="#b0b0b0"/>
    </g>
    <g id="Group_1134" data-name="Group 1134" transform="translate(-2 -11)">
      <path id="Path_592" data-name="Path 592" d="M123.2,202.984a1,1,0,0,1-1-1v-2.551a1,1,0,0,1,2,0v2.551A1,1,0,0,1,123.2,202.984Z" fill="#b0b0b0"/>
      <path id="Path_593" data-name="Path 593" d="M123.2,210.207a1,1,0,0,1-1-1v-2.551a1,1,0,0,1,2,0v2.551A1,1,0,0,1,123.2,210.207Z" fill="#b0b0b0"/>
      <path id="Path_594" data-name="Path 594" d="M128.082,205.32h-2.55a1,1,0,0,1,0-2h2.55a1,1,0,1,1,0,2Z" fill="#b0b0b0"/>
      <path id="Path_595" data-name="Path 595" d="M120.86,205.32h-2.552a1,1,0,0,1,0-2h2.552a1,1,0,1,1,0,2Z" fill="#b0b0b0"/>
    </g>
    <g id="Group_1135" data-name="Group 1135" transform="translate(37 -46)">
      <path id="Path_597" data-name="Path 597" d="M140.507,246.17a1,1,0,0,1-1-1v-2.551a1,1,0,0,1,2,0v2.551A1,1,0,0,1,140.507,246.17Z" fill="#b0b0b0"/>
      <path id="Path_598" data-name="Path 598" d="M140.507,253.393a1,1,0,0,1-1-1v-2.551a1,1,0,0,1,2,0v2.551A1,1,0,0,1,140.507,253.393Z" fill="#b0b0b0"/>
      <path id="Path_599" data-name="Path 599" d="M145.394,248.506h-2.551a1,1,0,0,1,0-2h2.551a1,1,0,0,1,0,2Z" fill="#b0b0b0"/>
      <path id="Path_600" data-name="Path 600" d="M138.171,248.506H135.62a1,1,0,0,1,0-2h2.551a1,1,0,0,1,0,2Z" fill="#b0b0b0"/>
    </g>
  </g>
</svg>
