<svg xmlns="http://www.w3.org/2000/svg" width="127.168" height="66.368" viewBox="0 0 127.168 66.368">
  <g id="Group_1243" data-name="Group 1243" transform="translate(-347 -4290)">
    <path id="Path_694" data-name="Path 694" d="M8,0H31a8,8,0,0,1,8,8s-.386,11.618-4.662,11.894S26.075,7.564,21.9,9.1,18.313,3.7,14.324,5.615s.419,6.811-4.224,9.208.043,5.341-5.855,8.094,6.848,9.892,7.787,15.413A5.532,5.532,0,0,1,8,45a8,8,0,0,1-8-8V8A8,8,0,0,1,8,0Z" transform="translate(398.352 4291.958) rotate(45)" fill="#fff"/>
    <g id="Group_1241" data-name="Group 1241" transform="translate(316.002 4275.705)">
      <path id="Path_675" data-name="Path 675" d="M154.558,36.44H132.353l-.02,0h-15.2a1.158,1.158,0,0,1,0-2.315h23.714a3.608,3.608,0,0,0,0-7.217H125.728a1.226,1.226,0,0,0,0,2.451h15.121a1.157,1.157,0,0,1,0,2.314H117.135a3.609,3.609,0,0,0,0,7.217h22.2l.019,0h15.2a1.158,1.158,0,0,1,0,2.315h-1.715l-.012,0H130.844a3.609,3.609,0,0,0,0,7.218h8.809l.024,0h1.163a1.157,1.157,0,0,1,0,2.314H100.218a1.226,1.226,0,1,0,0,2.452H140.84a3.609,3.609,0,1,0,0-7.218h-7.427l-.024,0h-2.545a1.157,1.157,0,0,1,0-2.314h23.714a3.609,3.609,0,0,0,0-7.217Z" fill="#0a0082"/>
      <g id="Group_1237" data-name="Group 1237">
        <path id="Path_676" data-name="Path 676" d="M61.107,18.846a1,1,0,0,1-1-1V15.3a1,1,0,0,1,2,0v2.551A1,1,0,0,1,61.107,18.846Z" fill="#0a0082"/>
        <path id="Path_677" data-name="Path 677" d="M61.107,26.069a1,1,0,0,1-1-1V22.518a1,1,0,1,1,2,0v2.551A1,1,0,0,1,61.107,26.069Z" fill="#0a0082"/>
        <path id="Path_678" data-name="Path 678" d="M65.994,21.182H63.443a1,1,0,0,1,0-2h2.551a1,1,0,0,1,0,2Z" fill="#0a0082"/>
        <path id="Path_679" data-name="Path 679" d="M58.771,21.182H56.22a1,1,0,1,1,0-2h2.551a1,1,0,0,1,0,2Z" fill="#0a0082"/>
      </g>
      <g id="Group_1238" data-name="Group 1238">
        <path id="Path_680" data-name="Path 680" d="M109.836,20.963a1,1,0,0,1-1-1V17.412a1,1,0,0,1,2,0v2.551A1,1,0,0,1,109.836,20.963Z" fill="#0a0082"/>
        <path id="Path_681" data-name="Path 681" d="M109.836,28.186a1,1,0,0,1-1-1V24.635a1,1,0,1,1,2,0v2.551A1,1,0,0,1,109.836,28.186Z" fill="#0a0082"/>
        <path id="Path_682" data-name="Path 682" d="M114.722,23.3h-2.55a1,1,0,0,1,0-2h2.55a1,1,0,0,1,0,2Z" fill="#0a0082"/>
        <path id="Path_683" data-name="Path 683" d="M107.5,23.3h-2.552a1,1,0,0,1,0-2H107.5a1,1,0,0,1,0,2Z" fill="#0a0082"/>
      </g>
      <path id="Path_684" data-name="Path 684" d="M150.69,33.7a3.441,3.441,0,1,1,3.407-3.441A3.427,3.427,0,0,1,150.69,33.7Zm0-5.064a1.623,1.623,0,1,0,1.589,1.623A1.607,1.607,0,0,0,150.69,28.64Z" fill="#0a0082"/>
      <path id="Path_685" data-name="Path 685" d="M51.151,36.648H39.982a1.5,1.5,0,1,1,0-3H51.151a1.5,1.5,0,0,1,0,3Z" fill="#0a0082"/>
      <path id="Path_686" data-name="Path 686" d="M45.708,42.074H32.5a1.5,1.5,0,1,1,0-3h13.21a1.5,1.5,0,0,1,0,3Z" fill="#0a0082"/>
      <path id="Path_687" data-name="Path 687" d="M52.924,47.687H35.207a1.5,1.5,0,1,1,0-3H52.924a1.5,1.5,0,0,1,0,3Z" fill="#0a0082"/>
      <g id="Group_1239" data-name="Group 1239">
        <path id="Path_688" data-name="Path 688" d="M117.319,69.7a1,1,0,0,1-1-1V66.15a1,1,0,0,1,2,0V68.7A1,1,0,0,1,117.319,69.7Z" fill="#0a0082"/>
        <path id="Path_689" data-name="Path 689" d="M117.319,76.923a1,1,0,0,1-1-1V73.372a1,1,0,0,1,2,0v2.551A1,1,0,0,1,117.319,76.923Z" fill="#0a0082"/>
        <path id="Path_690" data-name="Path 690" d="M122.205,72.036h-2.55a1,1,0,0,1,0-2h2.55a1,1,0,0,1,0,2Z" fill="#0a0082"/>
        <path id="Path_691" data-name="Path 691" d="M114.983,72.036h-2.551a1,1,0,0,1,0-2h2.551a1,1,0,0,1,0,2Z" fill="#0a0082"/>
      </g>
      <g id="Group_1240" data-name="Group 1240">
        <path id="Path_692" data-name="Path 692" d="M56.325,51.708a6.641,6.641,0,0,1-1.045-4.24,7,7,0,0,1,2.1-4.273L77.638,22.937a6.666,6.666,0,0,1,9.414,0l15.321,15.322a7,7,0,0,1,2.1,4.273,6.629,6.629,0,0,1-1.923,5.318l-2.48,2.48-.71.737c.8.927,2.2.516,2.917,1.463l2.835-2.118a10.222,10.222,0,0,0,3-7.717,10.726,10.726,0,0,0-3.239-7.058L89.613,20.375a10.291,10.291,0,0,0-14.537,0l-20.2,20.2a10.727,10.727,0,0,0-3.24,7.059,10.229,10.229,0,0,0,1.64,6.038,1.807,1.807,0,0,0,2.783.258h0A1.779,1.779,0,0,0,56.325,51.708Z" fill="#0a0082"/>
      </g>
      <path id="Path_693" data-name="Path 693" d="M85.4,80.663A1.419,1.419,0,0,0,86.842,79.4a11.578,11.578,0,0,1,.852-3.506c1.623-4.994,12.993-11,13.01-11.013h0a7.72,7.72,0,0,0,2-3.024,4.587,4.587,0,0,0-.738-3.913A4.763,4.763,0,0,0,95.744,56.8l-3.062,1.775c-.124.072-.136.059-.131.046l3.5-15.651a5.154,5.154,0,0,0-1.679-5.865,4.923,4.923,0,0,0-3.059-.97h0l.676-1.924a5.281,5.281,0,0,0-2.1-6.3,5.151,5.151,0,0,0-7.53,2.69l-.7,2.006-.05.015a4.976,4.976,0,0,0-2.432-.963,5.132,5.132,0,0,0-5.325,3.489l-.123.348a.013.013,0,0,1-.023.005,4.813,4.813,0,0,0-2.58-1.572,4.967,4.967,0,0,0-5.72,3.294c-2.487,7.078-7.223,28.52-8.735,32.892a1.505,1.505,0,0,0,.829,1.923,1.536,1.536,0,0,0,1.961-.94l8.758-32.957a1.966,1.966,0,0,1,2.268-1.323,1.876,1.876,0,0,1,1.312,2.439L67.4,51.742a1.8,1.8,0,0,0,.872,2.2l.113.058a1.91,1.91,0,0,0,2.679-1.063l5.9-16.781a1.786,1.786,0,0,1,1.872-1.228,1.708,1.708,0,0,1,1.474,1.5h0c-.007.022-3.061,11.371-4.734,16.129a1.79,1.79,0,1,0,3.358,1.241L85.692,31.9a1.645,1.645,0,0,1,1.8-1.127,1.566,1.566,0,0,1,1.188,2.056L82.627,53.416a1.89,1.89,0,0,0,.808,2.3,1.806,1.806,0,0,0,2.556-.992L89.767,40.62A1.757,1.757,0,0,1,91.41,39.4a1.721,1.721,0,0,1,1.617,2.288L89.409,57.68c-.594,2.191-.012,3.294.639,3.69a2.642,2.642,0,0,0,2.882-.046L97.2,58.849a2.1,2.1,0,0,1,2.872.764c.581,1,.3,2-.765,2.873,0,0-11.616,6.238-14.32,11.733A11.848,11.848,0,0,0,84,79.2a1.43,1.43,0,0,0,1.4,1.467Z" fill="#0a0082"/>
    </g>
  </g>
</svg>
