<svg xmlns="http://www.w3.org/2000/svg" width="137.296" height="62.573" viewBox="0 0 137.296 62.573">
  <g id="Group_1132" data-name="Group 1132" transform="translate(-24.905 -13.864)">
    <g id="Group_1131" data-name="Group 1131">
      <path id="Path_565" data-name="Path 565" d="M158.593,45.71H136.388l-.019,0h-15.2a1.157,1.157,0,0,1,0-2.314h23.713a3.608,3.608,0,1,0,0-7.217h-15.12a1.226,1.226,0,1,0,0,2.451h15.12a1.157,1.157,0,1,1,0,2.314H121.171a3.609,3.609,0,0,0,0,7.218h22.2l.02,0h15.2a1.157,1.157,0,0,1,0,2.314H134.879a3.609,3.609,0,0,0,0,7.218h8.81l.024,0h1.163a1.158,1.158,0,0,1,0,2.315H104.254a1.226,1.226,0,1,0,0,2.451h40.622a3.609,3.609,0,0,0,0-7.217h-7.427l-.024,0h-2.546a1.157,1.157,0,0,1,0-2.314h23.714a3.609,3.609,0,0,0,0-7.218Z" fill="#b0b0b0"/>
      <g id="Group_1125" data-name="Group 1125">
        <path id="Path_566" data-name="Path 566" d="M119.9,18.414a1,1,0,0,1-1-1v-2.55a1,1,0,1,1,2,0v2.55A1,1,0,0,1,119.9,18.414Z" fill="#b0b0b0"/>
        <path id="Path_567" data-name="Path 567" d="M119.9,25.637a1,1,0,0,1-1-1V22.086a1,1,0,1,1,2,0v2.551A1,1,0,0,1,119.9,25.637Z" fill="#b0b0b0"/>
        <path id="Path_568" data-name="Path 568" d="M124.791,20.75H122.24a1,1,0,0,1,0-2h2.551a1,1,0,0,1,0,2Z" fill="#b0b0b0"/>
        <path id="Path_569" data-name="Path 569" d="M117.568,20.75h-2.551a1,1,0,0,1,0-2h2.551a1,1,0,0,1,0,2Z" fill="#b0b0b0"/>
      </g>
      <g id="Group_1126" data-name="Group 1126">
        <path id="Path_570" data-name="Path 570" d="M102.213,26.028a1,1,0,0,1-1-1V22.477a1,1,0,0,1,2,0v2.551A1,1,0,0,1,102.213,26.028Z" fill="#b0b0b0"/>
        <path id="Path_571" data-name="Path 571" d="M102.213,33.251a1,1,0,0,1-1-1V29.7a1,1,0,1,1,2,0v2.551A1,1,0,0,1,102.213,33.251Z" fill="#b0b0b0"/>
        <path id="Path_572" data-name="Path 572" d="M107.1,28.365h-2.551a1,1,0,1,1,0-2H107.1a1,1,0,0,1,0,2Z" fill="#b0b0b0"/>
        <path id="Path_573" data-name="Path 573" d="M99.877,28.365H97.326a1,1,0,0,1,0-2h2.551a1,1,0,0,1,0,2Z" fill="#b0b0b0"/>
      </g>
      <path id="Path_574" data-name="Path 574" d="M108.467,43.483c-.68-4.038-2.805-5.959-6.473-5.906a35.656,35.656,0,0,0-5.739-.416c-5.038-.095-11.308-.214-16.9-4.285-7.89-5.747-14.888-3.9-18.357-2.3-5.5,2.552-9.457,7.746-9.836,12.925a19.976,19.976,0,0,0,.247,5.555,11.854,11.854,0,0,0-.148,2.05c.293,11.1,5.77,11.188,12.7,11.3,4.331.07,9.721.157,16.089,2.558a33.6,33.6,0,0,0,11.726,2.313,17.97,17.97,0,0,0,11.592-3.667C106.775,60.814,110.417,55.051,108.467,43.483Zm-54.309.24c.3-4.062,3.63-8.347,8.106-10.422a14.152,14.152,0,0,1,5.93-1.319,15.777,15.777,0,0,1,9.4,3.319c6.353,4.628,13.147,4.756,18.606,4.859,4.165.079,6.6.272,7.871,1.45.03.029.063.055.093.085a2.758,2.758,0,0,1,.222.261,3.17,3.17,0,0,1,.22.324c.034.058.07.113.1.174a4.976,4.976,0,0,1,.447,1.538c.008.057.016.115.023.173a10.259,10.259,0,0,1,.072,1.037,13.685,13.685,0,0,1-6.691,11.921c-5.352,3.386-12.374,3.513-18.785.338-6.562-3.25-12.2-3.908-16.731-4.437a30.073,30.073,0,0,1-5.53-.957l-.146-.053c-.139-.049-.275-.1-.4-.155a5.333,5.333,0,0,1-.581-.29c-.016-.008-.029-.018-.044-.027a4.291,4.291,0,0,1-.518-.365l-.057-.047a3.794,3.794,0,0,1-.469-.471l0,0a4.027,4.027,0,0,1-.314-.459,5.474,5.474,0,0,1-.59-1.523l-.126-.525A18.26,18.26,0,0,1,54.158,43.723ZM101.469,61.3c-4.451,3.665-12.06,3.987-20.354.862-6.856-2.584-12.534-2.675-17.1-2.749-6.006-.1-8.759-.142-9.531-5.482,2.1,1.372,4.989,1.709,8.2,2.082,4.3.5,9.657,1.12,15.756,4.14q.675.335,1.358.625c.15.064.3.118.452.178.306.125.612.25.921.361.177.064.355.117.532.177.283.095.566.192.851.277.19.056.38.1.57.154.272.074.545.149.817.213.2.046.4.084.6.125.265.055.531.111.8.157.2.035.406.062.609.091.26.038.52.076.78.1.206.023.411.039.617.056.256.022.513.043.768.055.207.011.414.015.62.019.165,0,.33.015.494.015.082,0,.163-.007.245-.008.253,0,.5-.014.756-.025.223-.01.447-.02.669-.037.252-.019.5-.048.753-.076.219-.024.438-.047.655-.078.252-.037.5-.083.752-.129.212-.038.425-.074.635-.119.253-.054.5-.119.753-.183.2-.052.407-.1.609-.157.255-.073.506-.159.758-.242.191-.064.385-.122.575-.191.261-.1.517-.2.774-.31.174-.072.352-.138.525-.215.282-.127.559-.268.836-.408.141-.071.286-.135.425-.21q.621-.333,1.22-.711c.492-.31.957-.647,1.409-1,.08-.062.16-.121.239-.184q.639-.51,1.221-1.068c.075-.072.149-.147.223-.22.391-.387.766-.786,1.115-1.2.021-.025.039-.052.06-.077.336-.406.647-.828.941-1.259.033-.048.073-.091.1-.14A12.184,12.184,0,0,1,101.469,61.3Z" fill="#b0b0b0"/>
      <g id="Group_1127" data-name="Group 1127">
        <path id="Path_575" data-name="Path 575" d="M60.527,46.517a3.286,3.286,0,1,1,3.249-3.286A3.271,3.271,0,0,1,60.527,46.517Zm0-5.572a2.286,2.286,0,1,0,2.249,2.286A2.27,2.27,0,0,0,60.527,40.945Z" fill="#b0b0b0"/>
      </g>
      <path id="Path_576" data-name="Path 576" d="M154.106,62.635a3.441,3.441,0,1,1,3.407-3.441A3.427,3.427,0,0,1,154.106,62.635Zm0-5.064a1.624,1.624,0,1,0,1.589,1.623A1.607,1.607,0,0,0,154.106,57.571Z" fill="#b0b0b0"/>
      <g id="Group_1128" data-name="Group 1128">
        <path id="Path_577" data-name="Path 577" d="M68,42.225a2.543,2.543,0,1,1,2.515-2.543A2.532,2.532,0,0,1,68,42.225Zm0-4.086a1.543,1.543,0,1,0,1.515,1.543A1.531,1.531,0,0,0,68,38.139Z" fill="#b0b0b0"/>
      </g>
      <g id="Group_1129" data-name="Group 1129">
        <path id="Path_578" data-name="Path 578" d="M100.214,47.27a2.543,2.543,0,1,1,2.515-2.543A2.532,2.532,0,0,1,100.214,47.27Zm0-4.086a1.543,1.543,0,1,0,1.515,1.543A1.531,1.531,0,0,0,100.214,43.184Z" fill="#b0b0b0"/>
      </g>
      <path id="Path_579" data-name="Path 579" d="M45.058,41.427H33.889a1.5,1.5,0,0,1,0-3H45.058a1.5,1.5,0,0,1,0,3Z" fill="#b0b0b0"/>
      <path id="Path_580" data-name="Path 580" d="M39.616,46.853H26.405a1.5,1.5,0,1,1,0-3H39.616a1.5,1.5,0,0,1,0,3Z" fill="#b0b0b0"/>
      <path id="Path_581" data-name="Path 581" d="M46.832,52.466H29.114a1.5,1.5,0,0,1,0-3H46.832a1.5,1.5,0,0,1,0,3Z" fill="#b0b0b0"/>
      <g id="Group_1130" data-name="Group 1130">
        <path id="Path_582" data-name="Path 582" d="M119.524,69.214a1,1,0,0,1-1-1v-2.55a1,1,0,0,1,2,0v2.55A1,1,0,0,1,119.524,69.214Z" fill="#b0b0b0"/>
        <path id="Path_583" data-name="Path 583" d="M119.524,76.437a1,1,0,0,1-1-1V72.886a1,1,0,0,1,2,0v2.551A1,1,0,0,1,119.524,76.437Z" fill="#b0b0b0"/>
        <path id="Path_584" data-name="Path 584" d="M124.411,71.55H121.86a1,1,0,0,1,0-2h2.551a1,1,0,0,1,0,2Z" fill="#b0b0b0"/>
        <path id="Path_585" data-name="Path 585" d="M117.188,71.55h-2.55a1,1,0,0,1,0-2h2.55a1,1,0,1,1,0,2Z" fill="#b0b0b0"/>
      </g>
    </g>
  </g>
</svg>
