<svg xmlns="http://www.w3.org/2000/svg" width="144.863" height="52.92" viewBox="0 0 144.863 52.92">
  <g id="Group_1164" data-name="Group 1164" transform="translate(-20.234 -157.173)">
    <rect id="Rectangle_744" data-name="Rectangle 744" width="11.125" height="3.315" rx="1.658" transform="translate(43.679 170.003) rotate(30)" fill="#fff"/>
    <rect id="Rectangle_745" data-name="Rectangle 745" width="17.579" height="31.094" transform="translate(38.16 172.107) rotate(30)" fill="#fff"/>
    <circle id="Ellipse_52" data-name="Ellipse 52" cx="0.837" cy="0.837" r="0.837" transform="translate(97.317 172.021)" fill="#0a007d"/>
    <circle id="Ellipse_53" data-name="Ellipse 53" cx="1.011" cy="1.011" r="1.011" transform="translate(80.493 193.601)" fill="#0a007d"/>
    <circle id="Ellipse_54" data-name="Ellipse 54" cx="2.053" cy="2.053" r="2.053" transform="translate(93.037 197.882)" fill="#0a007d"/>
    <path id="Path_606" data-name="Path 606" d="M145.367,188.039a3.441,3.441,0,1,1,3.406-3.441A3.429,3.429,0,0,1,145.367,188.039Zm0-5.064a1.623,1.623,0,1,0,1.588,1.623A1.608,1.608,0,0,0,145.367,182.975Z" fill="#0a007d"/>
    <path id="Path_607" data-name="Path 607" d="M143.26,190.117H111.834a.75.75,0,0,1,0-1.5h19.913a3.251,3.251,0,1,0,0-6.5h-12.7a1.25,1.25,0,1,0,0,2.5h12.7a.751.751,0,1,1,0,1.5H111.834a3.252,3.252,0,0,0,0,6.5H143.26a.751.751,0,0,1,0,1.5H123.346a3.252,3.252,0,0,0,0,6.5h7.4a1.251,1.251,0,0,0,0-2.5h-7.4a.75.75,0,1,1,0-1.5H143.26a3.251,3.251,0,0,0,0-6.5Z" fill="#0a007d"/>
    <g id="Group_1143" data-name="Group 1143">
      <path id="Path_608" data-name="Path 608" d="M159.21,177.211a1,1,0,0,1-1-1V173.66a1,1,0,1,1,2,0v2.551A1,1,0,0,1,159.21,177.211Z" fill="#0a007d"/>
      <path id="Path_609" data-name="Path 609" d="M159.21,184.433a1,1,0,0,1-1-1v-2.551a1,1,0,0,1,2,0v2.551A1,1,0,0,1,159.21,184.433Z" fill="#0a007d"/>
      <path id="Path_610" data-name="Path 610" d="M164.1,179.546h-2.551a1,1,0,0,1,0-2H164.1a1,1,0,0,1,0,2Z" fill="#0a007d"/>
      <path id="Path_611" data-name="Path 611" d="M156.874,179.546h-2.55a1,1,0,0,1,0-2h2.55a1,1,0,0,1,0,2Z" fill="#0a007d"/>
    </g>
    <g id="Group_1144" data-name="Group 1144">
      <path id="Path_612" data-name="Path 612" d="M116.266,171.226a1,1,0,0,1-1-1v-2.551a1,1,0,0,1,2,0v2.551A1,1,0,0,1,116.266,171.226Z" fill="#0a007d"/>
      <path id="Path_613" data-name="Path 613" d="M116.266,178.448a1,1,0,0,1-1-1V174.9a1,1,0,0,1,2,0v2.55A1,1,0,0,1,116.266,178.448Z" fill="#0a007d"/>
      <path id="Path_614" data-name="Path 614" d="M121.153,173.562H118.6a1,1,0,0,1,0-2h2.551a1,1,0,1,1,0,2Z" fill="#0a007d"/>
      <path id="Path_615" data-name="Path 615" d="M113.93,173.562h-2.551a1,1,0,0,1,0-2h2.551a1,1,0,1,1,0,2Z" fill="#0a007d"/>
    </g>
    <g id="Group_1145" data-name="Group 1145">
      <path id="Path_616" data-name="Path 616" d="M130.31,161.724a1,1,0,0,1-1-1v-2.551a1,1,0,1,1,2,0v2.551A1,1,0,0,1,130.31,161.724Z" fill="#0a007d"/>
      <path id="Path_617" data-name="Path 617" d="M130.31,168.947a1,1,0,0,1-1-1V165.4a1,1,0,0,1,2,0v2.551A1,1,0,0,1,130.31,168.947Z" fill="#0a007d"/>
      <path id="Path_618" data-name="Path 618" d="M135.2,164.06h-2.551a1,1,0,1,1,0-2H135.2a1,1,0,0,1,0,2Z" fill="#0a007d"/>
      <path id="Path_619" data-name="Path 619" d="M127.974,164.06h-2.55a1,1,0,0,1,0-2h2.55a1,1,0,0,1,0,2Z" fill="#0a007d"/>
    </g>
    <path id="Path_620" data-name="Path 620" d="M100.387,177.777a3.21,3.21,0,0,0-2.137.818l-.891.894c-.575-2.615-1.263-5.205-2.091-7.754-.225-.692-.483-2.429-1.222-2.723a3.2,3.2,0,0,0-2.121.2,1.622,1.622,0,0,0-1.261,1.517c-.066,1.443.262,2.9.26,4.348a10.817,10.817,0,0,1-1.551,5.876,9.254,9.254,0,0,1-3.355,3.026l.562-2.059a7.889,7.889,0,0,0,2.775-3.374,5.149,5.149,0,0,0-.3-5.021,4.921,4.921,0,0,0-2.656-1.78,7.109,7.109,0,0,0-7.166,2.239,19.023,19.023,0,0,0-3.315,7.219c-1.5,4.131-2.747,8.364-3.926,12.6a51.177,51.177,0,0,1-8.822-6.326c-.368-.311-1.059-.712-1.264-1.15-.267-.568.654-.984,1.044-1.289l3.271-2.557,2.189-1.711q-.716,4.394-1.706,8.738c-.166.73,1.4.43,1.757.366.531-.1,2.443-.457,2.607-1.174q1.353-5.934,2.209-11.966c.066-.464-1.692-.2-1.791-.176a5.572,5.572,0,0,0-2.424.962L61.928,183.1c-1.189.93-2.384,1.853-3.568,2.789-.389.308-.986.7-.985,1.263,0,.513.512.87.864,1.173,3.955,3.4,8.108,6.782,13.1,8.519a3.967,3.967,0,0,0,2.261-.107c.5-.132,1.85-.453,2.012-1.038,1.208-4.372,2.423-8.768,3.882-13.073.022.02.039.044.061.063a3.176,3.176,0,0,0,1.868.685A7.649,7.649,0,0,0,83,183.328l-.556,2.036c-.671.173-1.348.322-2.022.436-.48.081-1.761.356-1.857.975-.1.635.977.545,1.333.485.7-.12,1.424-.263,2.146-.429L81.1,190.3a1.543,1.543,0,1,0,2.977.812l1.45-5.315a13.355,13.355,0,0,0,7.31-5.786,9.392,9.392,0,0,0,.784-1.907c.348,1.39.665,2.789.941,4.2l-6.539,6.556c-.554.555.5.709.81.719l7.765.247c.559.018,2.359-.367,2.27-1.2-.245-2.266-.6-4.515-1.03-6.752L101.2,178.5C101.735,177.957,100.733,177.773,100.387,177.777ZM85.527,174.7a1.927,1.927,0,0,1,1.025.622,2.219,2.219,0,0,1-.04,2.021c-.021.049-.042.1-.065.144a4.045,4.045,0,0,0-1.076-1.1,4.231,4.231,0,0,0-2.413-.773,3.856,3.856,0,0,0-.9.1c-.1.022-.188.048-.28.077A4,4,0,0,1,85.527,174.7ZM81.66,180.3h0a1.681,1.681,0,0,1,1.113-1.577,1.109,1.109,0,0,1,.835.2.77.77,0,0,1,.352.494,1.631,1.631,0,0,1-.038.483A4.712,4.712,0,0,1,81.66,180.3Zm12.264-10.588V169.7C93.865,169.578,94.055,169.646,93.924,169.709Zm1.569,18.5-3.858-.123L95,184.715C95.187,185.874,95.349,187.039,95.493,188.206Z" fill="#0a007d"/>
    <g id="Group_1146" data-name="Group 1146">
      <path id="Path_621" data-name="Path 621" d="M51.075,172.245l2.3-3.889a.332.332,0,0,0-.116-.454l-3.233-1.915a.329.329,0,0,0-.453.116l-2.31,3.9a18.383,18.383,0,0,0-7.471.632L37.878,169.5,20.234,199.271l18.26,10.822,17.645-29.776-2.012-1.192A18.307,18.307,0,0,0,51.075,172.245Zm-2.835.476c1.237.733,2.287,2.624,3.017,4.7l-8.592-5.092C44.84,171.975,47,171.989,48.24,172.721Zm-.932,17.769-3.995-2.367a2.078,2.078,0,0,1-.729-2.849l.637-1.075a2.075,2.075,0,0,1,2.848-.727l3.995,2.366Zm4.03-6.553-4.1-2.431a4.361,4.361,0,0,0-5.979,1.529l-.637,1.074a4.365,4.365,0,0,0,1.529,5.979l4.1,2.432-8.558,14.442-14.328-8.491,15.25-25.735,14.328,8.491Z" fill="#0a007d"/>
      <circle id="Ellipse_55" data-name="Ellipse 55" cx="0.539" cy="0.539" r="0.539" transform="translate(55.451 169.073)" fill="#0a007d"/>
      <path id="Path_622" data-name="Path 622" d="M54.219,170.5a.453.453,0,1,0-.454-.453A.453.453,0,0,0,54.219,170.5Z" fill="#0a007d"/>
      <circle id="Ellipse_56" data-name="Ellipse 56" cx="0.539" cy="0.539" r="0.539" transform="translate(55.784 172.589)" fill="#0a007d"/>
      <circle id="Ellipse_57" data-name="Ellipse 57" cx="0.453" cy="0.453" r="0.453" transform="translate(55.202 170.724)" fill="#0a007d"/>
      <path id="Path_623" data-name="Path 623" d="M58.427,172.1a.447.447,0,1,0,.447.447A.447.447,0,0,0,58.427,172.1Z" fill="#0a007d"/>
      <path id="Path_624" data-name="Path 624" d="M61.6,171.751a.446.446,0,1,0-.447.446A.447.447,0,0,0,61.6,171.751Z" fill="#0a007d"/>
      <circle id="Ellipse_58" data-name="Ellipse 58" cx="0.446" cy="0.446" r="0.446" transform="translate(59.034 171.048)" fill="#0a007d"/>
      <circle id="Ellipse_59" data-name="Ellipse 59" cx="0.446" cy="0.446" r="0.446" transform="translate(61.758 170.252)" fill="#0a007d"/>
      <path id="Path_625" data-name="Path 625" d="M57.04,171.66a.385.385,0,1,0,.385.386A.386.386,0,0,0,57.04,171.66Z" fill="#0a007d"/>
      <circle id="Ellipse_60" data-name="Ellipse 60" cx="0.319" cy="0.319" r="0.319" transform="translate(57.579 173.546)" fill="#0a007d"/>
      <path id="Path_626" data-name="Path 626" d="M57.35,171.177a.376.376,0,1,0-.376-.375A.375.375,0,0,0,57.35,171.177Z" fill="#0a007d"/>
      <path id="Path_627" data-name="Path 627" d="M58.792,170.2a.376.376,0,1,0-.375-.376A.376.376,0,0,0,58.792,170.2Z" fill="#0a007d"/>
      <path id="Path_628" data-name="Path 628" d="M61.65,173.079a.539.539,0,1,0,.682.34A.539.539,0,0,0,61.65,173.079Z" fill="#0a007d"/>
      <path id="Path_629" data-name="Path 629" d="M59.868,174.385a.446.446,0,1,0,.565.281A.445.445,0,0,0,59.868,174.385Z" fill="#0a007d"/>
      <path id="Path_630" data-name="Path 630" d="M65.208,171.541a.446.446,0,1,0-.281.565A.446.446,0,0,0,65.208,171.541Z" fill="#0a007d"/>
      <path id="Path_631" data-name="Path 631" d="M59.2,175.717a.447.447,0,1,0,.566.282A.446.446,0,0,0,59.2,175.717Z" fill="#0a007d"/>
      <path id="Path_632" data-name="Path 632" d="M62.83,177.308a.446.446,0,1,0,.565.281A.446.446,0,0,0,62.83,177.308Z" fill="#0a007d"/>
      <path id="Path_633" data-name="Path 633" d="M61.363,174.478a.385.385,0,1,0,.488.243A.386.386,0,0,0,61.363,174.478Z" fill="#0a007d"/>
      <path id="Path_634" data-name="Path 634" d="M59.791,173.491a.319.319,0,1,0,.2-.4A.319.319,0,0,0,59.791,173.491Z" fill="#0a007d"/>
      <path id="Path_635" data-name="Path 635" d="M65.891,174.884a.376.376,0,1,0-.237.476A.377.377,0,0,0,65.891,174.884Z" fill="#0a007d"/>
    </g>
    <path id="Path_636" data-name="Path 636" d="M107.5,179.869a6.421,6.421,0,0,1,.078-.946,2.149,2.149,0,0,1-2.829-3.214,4.131,4.131,0,0,1-.98-2.236,6.566,6.566,0,0,0-.7,12.915v10.175a1.549,1.549,0,1,0,1.825,0V186.548a6.587,6.587,0,0,0,1.217-.176v6.31a.788.788,0,0,0,.788.788h.248a.788.788,0,0,0,.788-.788V187.8c.114.051.234.088.353.129v6.913a.788.788,0,0,0,.788.789h.249a.788.788,0,0,0,.788-.789v-6.723a4.107,4.107,0,0,0,3.015-1.954A6.332,6.332,0,0,1,107.5,179.869Zm-5.519-1.936a1.333,1.333,0,1,1,1.333-1.333A1.333,1.333,0,0,1,101.983,177.933Zm3.71,4.531a.513.513,0,1,1,.513-.513A.513.513,0,0,1,105.693,182.464Z" fill="#0a007d"/>
  </g>
</svg>
