<svg xmlns="http://www.w3.org/2000/svg" width="137.36" height="55.455" viewBox="0 0 137.36 55.455">
  <g id="Group_1124" data-name="Group 1124" transform="translate(-29.608 -92.272)">
    <g id="Group_1123" data-name="Group 1123">
      <path id="Path_539" data-name="Path 539" d="M151.171,126.989a3.441,3.441,0,1,1,3.406-3.441A3.427,3.427,0,0,1,151.171,126.989Zm0-5.064a1.624,1.624,0,1,0,1.589,1.623A1.608,1.608,0,0,0,151.171,121.925Z" fill="#b0b0b0"/>
      <path id="Path_540" data-name="Path 540" d="M71.42,141.03h-.107l-23.576-.465a5.259,5.259,0,0,1-5.128-5.231V104.25a5.268,5.268,0,0,1,1.091-3.2l4.411-5.708a5.263,5.263,0,0,1,4.139-2.032H68.317a5.223,5.223,0,0,1,4,1.863h0l3.1,3.687c1.058,1.258,1.227,6.219,1.227,6.267a1.033,1.033,0,1,1-2.065,0,18.355,18.355,0,0,0-.757-4.957l-3.083-3.665,0,0a3.161,3.161,0,0,0-2.424-1.128H52.25a3.184,3.184,0,0,0-2.5,1.23l-4.411,5.708a3.184,3.184,0,0,0-.661,1.936v31.083a3.184,3.184,0,0,0,3.1,3.166l23.576.464a3.054,3.054,0,0,0,2.279-.9,3.141,3.141,0,0,0,.95-2.261v-9.36a1.033,1.033,0,0,1,1.858-.621l3.574,4.749,7.5-1.344a1.033,1.033,0,0,1,.364,2.033l-8.128,1.456a1.037,1.037,0,0,1-1.007-.4l-2.1-2.787v6.27a5.23,5.23,0,0,1-5.228,5.232Zm-5.259-10.817H53.346a7.193,7.193,0,0,1-7.185-7.185V107.89a7.193,7.193,0,0,1,7.185-7.185H66.161a7.194,7.194,0,0,1,7.186,7.185v15.138A7.194,7.194,0,0,1,66.161,130.213ZM53.346,102.771a5.124,5.124,0,0,0-5.119,5.119v15.138a5.124,5.124,0,0,0,5.119,5.119H66.161a5.125,5.125,0,0,0,5.12-5.119V107.89a5.125,5.125,0,0,0-5.12-5.119Z" fill="#b0b0b0"/>
      <path id="Path_541" data-name="Path 541" d="M87.085,125.725c0,.416-.227.753-.508.753l-2.59-.006c-.281,0-.509-.337-.509-.753V113.345c0-.416.228-.753.509-.753l2.59.694c.281,0,.508.337.508.753Zm9.214.435a.565.565,0,0,1-.509.608l-2.59-.152a.564.564,0,0,1-.508-.608v-10a.564.564,0,0,1,.508-.608l2.59.561a.565.565,0,0,1,.509.608Zm4.744.319a.524.524,0,0,1-.5.549l-2.52-.2a.524.524,0,0,1-.5-.549v-9.024a.524.524,0,0,1,.5-.549l2.52.507a.524.524,0,0,1,.5.549Zm10.254.543a.453.453,0,0,1-.454.453l-5.994-.539a.454.454,0,0,1-.454-.454V118.8a.453.453,0,0,1,.454-.453l5.994,1.394a.454.454,0,0,1,.454.454Zm5.133.169a.355.355,0,0,1-.321.381l-1.634-.132a.354.354,0,0,1-.321-.38v-6.248a.354.354,0,0,1,.321-.38l1.634.351a.354.354,0,0,1,.321.38Zm3.016.112a.318.318,0,0,1-.288.341l-1.467-.118a.317.317,0,0,1-.287-.341v-5.608a.317.317,0,0,1,.287-.341l1.467.314a.318.318,0,0,1,.288.341Zm7.4.454a.287.287,0,0,1-.287.287l-3.788-.341a.286.286,0,0,1-.286-.287V122.7a.286.286,0,0,1,.286-.286l3.788.881a.287.287,0,0,1,.287.287Z" fill="#b0b0b0"/>
      <path id="Path_542" data-name="Path 542" d="M163.717,137.222H132.291a.75.75,0,0,1,0-1.5h19.914a3.252,3.252,0,1,0,0-6.5h-12.7a1.25,1.25,0,1,0,0,2.5h12.7a.751.751,0,0,1,0,1.5H132.291a3.251,3.251,0,1,0,0,6.5h31.426a.75.75,0,0,1,0,1.5H143.8a3.252,3.252,0,0,0,0,6.5h7.4a1.251,1.251,0,0,0,0-2.5h-7.4a.751.751,0,0,1,0-1.5h19.914a3.252,3.252,0,0,0,0-6.5Z" fill="#b0b0b0"/>
      <g id="Group_1119" data-name="Group 1119">
        <path id="Path_543" data-name="Path 543" d="M121.932,102.662a1,1,0,0,1-1-1V99.111a1,1,0,0,1,2,0v2.551A1,1,0,0,1,121.932,102.662Z" fill="#b0b0b0"/>
        <path id="Path_544" data-name="Path 544" d="M121.932,109.884a1,1,0,0,1-1-1v-2.551a1,1,0,0,1,2,0v2.551A1,1,0,0,1,121.932,109.884Z" fill="#b0b0b0"/>
        <path id="Path_545" data-name="Path 545" d="M126.819,105h-2.551a1,1,0,0,1,0-2h2.551a1,1,0,0,1,0,2Z" fill="#b0b0b0"/>
        <path id="Path_546" data-name="Path 546" d="M119.6,105h-2.551a1,1,0,0,1,0-2H119.6a1,1,0,0,1,0,2Z" fill="#b0b0b0"/>
      </g>
      <g id="Group_1120" data-name="Group 1120">
        <path id="Path_547" data-name="Path 547" d="M113.967,140.3a1,1,0,0,1-1-1v-2.551a1,1,0,0,1,2,0V139.3A1,1,0,0,1,113.967,140.3Z" fill="#b0b0b0"/>
        <path id="Path_548" data-name="Path 548" d="M113.967,147.52a1,1,0,0,1-1-1v-2.55a1,1,0,0,1,2,0v2.55A1,1,0,0,1,113.967,147.52Z" fill="#b0b0b0"/>
        <path id="Path_549" data-name="Path 549" d="M118.853,142.634H116.3a1,1,0,1,1,0-2h2.551a1,1,0,0,1,0,2Z" fill="#b0b0b0"/>
        <path id="Path_550" data-name="Path 550" d="M111.631,142.634H109.08a1,1,0,0,1,0-2h2.551a1,1,0,0,1,0,2Z" fill="#b0b0b0"/>
      </g>
      <g id="Group_1121" data-name="Group 1121">
        <path id="Path_551" data-name="Path 551" d="M35.5,99.213a1,1,0,0,1-1-1v-2.55a1,1,0,0,1,2,0v2.55A1,1,0,0,1,35.5,99.213Z" fill="#b0b0b0"/>
        <path id="Path_552" data-name="Path 552" d="M35.5,106.436a1,1,0,0,1-1-1v-2.551a1,1,0,0,1,2,0v2.551A1,1,0,0,1,35.5,106.436Z" fill="#b0b0b0"/>
        <path id="Path_553" data-name="Path 553" d="M40.382,101.549h-2.55a1,1,0,1,1,0-2h2.55a1,1,0,1,1,0,2Z" fill="#b0b0b0"/>
        <path id="Path_554" data-name="Path 554" d="M33.16,101.549H30.608a1,1,0,1,1,0-2H33.16a1,1,0,0,1,0,2Z" fill="#b0b0b0"/>
      </g>
      <g id="Group_1122" data-name="Group 1122">
        <path id="Path_555" data-name="Path 555" d="M135.206,108.469a1,1,0,0,1-1-1v-2.551a1,1,0,0,1,2,0v2.551A1,1,0,0,1,135.206,108.469Z" fill="#b0b0b0"/>
        <path id="Path_556" data-name="Path 556" d="M135.206,115.693a1,1,0,0,1-1-1v-2.551a1,1,0,0,1,2,0v2.551A1,1,0,0,1,135.206,115.693Z" fill="#b0b0b0"/>
        <path id="Path_557" data-name="Path 557" d="M140.093,110.806h-2.551a1,1,0,0,1,0-2h2.551a1,1,0,0,1,0,2Z" fill="#b0b0b0"/>
        <path id="Path_558" data-name="Path 558" d="M132.87,110.806h-2.551a1,1,0,0,1,0-2h2.551a1,1,0,0,1,0,2Z" fill="#b0b0b0"/>
      </g>
      <path id="Path_559" data-name="Path 559" d="M142.933,124.45c-.039,0-.079,0-.12,0-27.942-2.646-50.762-15.195-59.277-20.468-.234-.144-.259-.16-4.674-5.023-1.685-1.857-3.775-4.159-4.1-4.483a1.25,1.25,0,0,1,1.482-2c.224.141.247.156,4.47,4.807,1.7,1.875,3.8,4.184,4.249,4.647,6.678,4.122,30.059,17.382,58.088,20.036a1.25,1.25,0,0,1-.117,2.494Z" fill="#b0b0b0"/>
      <path id="Path_560" data-name="Path 560" d="M79.823,139.3a1.25,1.25,0,0,1-.351-2.449c11.49-3.372,31.7-7.437,62.709-7.654a1.25,1.25,0,0,1,.017,2.5c-30.722.214-50.685,4.225-62.022,7.552A1.24,1.24,0,0,1,79.823,139.3Z" fill="#b0b0b0"/>
      <path id="Path_561" data-name="Path 561" d="M66.357,101.977H53.307a5.477,5.477,0,0,0-5.471,5.471v.655H71.828v-.655A5.477,5.477,0,0,0,66.357,101.977Zm2.471,4.846H50.78a1.473,1.473,0,0,1,0-2.946H68.828a1.473,1.473,0,1,1,0,2.946Z" fill="#b0b0b0"/>
      <path id="Path_562" data-name="Path 562" d="M44.238,144.355l24.683.27,1.554.02c.523.02,1.03.06,1.523.048a6.16,6.16,0,0,0,2.8-.856c.909-.474,1.851-.909,2.775-1.365s1.853-.909,2.811-1.295a88.306,88.306,0,0,1,11.644-4.16,121.313,121.313,0,0,1,24.343-4.044c8.215-.59,16.454-.588,24.681-.444-8.228-.075-16.465-.007-24.666.651a120.984,120.984,0,0,0-24.243,4.238,87.932,87.932,0,0,0-11.549,4.235c-.948.392-1.866.849-2.782,1.311s-1.84.9-2.752,1.382a6.734,6.734,0,0,1-3.042.946c-.536.018-1.056-.021-1.561-.035l-1.532-.007-24.691-.061a.417.417,0,0,1,0-.834Z" fill="#b0b0b0"/>
      <path id="Path_563" data-name="Path 563" d="M59.678,120.777a2.312,2.312,0,0,0-1.983,1.134H47.227v.687a5.742,5.742,0,0,0,5.736,5.736H66.648a5.743,5.743,0,0,0,5.737-5.736v-.687H61.66A2.313,2.313,0,0,0,59.678,120.777Zm-8.812,4.282a.941.941,0,0,1-1.883,0v-.215a.941.941,0,0,1,1.883,0Zm2.712,0a.941.941,0,1,1-1.882,0v-.215a.941.941,0,1,1,1.882,0Zm7.515-1.071a1.681,1.681,0,1,1,.238-1.264A1.663,1.663,0,0,1,61.093,123.988Zm7.654.856a.941.941,0,0,1,1.883,0v.215a.941.941,0,0,1-1.883,0Zm-2.713,0a.942.942,0,0,1,1.883,0v.215a.942.942,0,0,1-1.883,0Z" fill="#b0b0b0"/>
    </g>
  </g>
</svg>
