<svg xmlns="http://www.w3.org/2000/svg" width="115.592" height="59.045" viewBox="0 0 115.592 59.045">
  <g id="Group_1117" data-name="Group 1117" transform="translate(-44.68 -178.614)">
    <path id="Path_520" data-name="Path 520" d="M112.836,196.737a2.48,2.48,0,0,0-1.857,2.976l0,.01-6.558,2.508a17.128,17.128,0,0,0-13.7-8.792l-.017-6.513a2.746,2.746,0,1,0-1.939-.14l.011,0-2.118,6.824a17.059,17.059,0,0,0-10.018,5.5,17.315,17.315,0,0,0-1.569,2.046l-10.515-3.112a2.47,2.47,0,1,0-.62,1.633l.006-.008,9.025,6.059a17.2,17.2,0,0,0-.543,6.937l-5.164,2.306a2.747,2.747,0,1,0,.657,1.829s0-.008,0-.012l5.324-.622a17.022,17.022,0,0,0,3.518,5.9L73.081,230.7a2.747,2.747,0,1,0,1.726.9l-.009-.008,5.57-6.518a17.154,17.154,0,0,0,18.094.018l4.685,3.9a2.469,2.469,0,1,0,1.215-1.256l-.009,0-3.1-4.808c.33-.315.653-.641.962-.987a17.042,17.042,0,0,0,4.133-8.69l6.416-.63a2.469,2.469,0,1,0-.04-1.747l0,.01-6.179-1.289a17.283,17.283,0,0,0-.606-3.669l6.024-4.761a2.476,2.476,0,1,0,.88-4.424Z" fill="#d4d4d5" stroke="#d4d4d5" stroke-linecap="round" stroke-linejoin="round" stroke-width="1.6"/>
    <circle id="Ellipse_48" data-name="Ellipse 48" cx="2.067" cy="2.067" r="2.067" transform="translate(94.854 209.752)" fill="#b0b0b0" stroke="#b0b0b0" stroke-linecap="round" stroke-miterlimit="10" stroke-width="1.6"/>
    <circle id="Ellipse_49" data-name="Ellipse 49" cx="4.781" cy="4.781" r="4.781" transform="translate(84.917 198.757)" fill="#b0b0b0" stroke="#b0b0b0" stroke-linecap="round" stroke-miterlimit="10" stroke-width="1.6"/>
    <path id="Path_521" data-name="Path 521" d="M79.971,213.894a12.375,12.375,0,0,1,9.657,7.389" fill="none" stroke="#b0b0b0" stroke-linecap="round" stroke-miterlimit="10" stroke-width="1.6"/>
    <circle id="Ellipse_50" data-name="Ellipse 50" cx="3.954" cy="3.954" r="3.954" transform="translate(86.962 200.015)" fill="#b0b0b0" stroke="#b0b0b0" stroke-width="1"/>
    <path id="Path_522" data-name="Path 522" d="M157.021,218.343H125.6a.75.75,0,0,1,0-1.5h19.913a3.251,3.251,0,1,0,0-6.5H113.733a1.25,1.25,0,1,0,0,2.5h31.775a.751.751,0,1,1,0,1.5H125.6a3.251,3.251,0,1,0,0,6.5h31.426a.751.751,0,0,1,0,1.5H117.107a3.252,3.252,0,0,0,0,6.5h7.4a1.251,1.251,0,1,0,0-2.5h-7.4a.751.751,0,1,1,0-1.5h39.914a3.251,3.251,0,0,0,0-6.5Z" fill="#b0b0b0"/>
    <g id="Group_1113" data-name="Group 1113">
      <path id="Path_523" data-name="Path 523" d="M127.342,190.078a1,1,0,0,1-1-1v-2.551a1,1,0,1,1,2,0v2.551A1,1,0,0,1,127.342,190.078Z" fill="#b0b0b0"/>
      <path id="Path_524" data-name="Path 524" d="M127.342,197.3a1,1,0,0,1-1-1V193.75a1,1,0,1,1,2,0V196.3A1,1,0,0,1,127.342,197.3Z" fill="#b0b0b0"/>
      <path id="Path_525" data-name="Path 525" d="M132.229,192.414h-2.551a1,1,0,0,1,0-2h2.551a1,1,0,0,1,0,2Z" fill="#b0b0b0"/>
      <path id="Path_526" data-name="Path 526" d="M125.006,192.414h-2.55a1,1,0,1,1,0-2h2.55a1,1,0,1,1,0,2Z" fill="#b0b0b0"/>
    </g>
    <g id="Group_1114" data-name="Group 1114">
      <path id="Path_527" data-name="Path 527" d="M50.567,200.476a1,1,0,0,1-1-1v-2.551a1,1,0,0,1,2,0v2.551A1,1,0,0,1,50.567,200.476Z" fill="#b0b0b0"/>
      <path id="Path_528" data-name="Path 528" d="M50.567,207.7a1,1,0,0,1-1-1v-2.551a1,1,0,0,1,2,0V206.7A1,1,0,0,1,50.567,207.7Z" fill="#b0b0b0"/>
      <path id="Path_529" data-name="Path 529" d="M55.454,202.813H52.9a1,1,0,0,1,0-2h2.551a1,1,0,0,1,0,2Z" fill="#b0b0b0"/>
      <path id="Path_530" data-name="Path 530" d="M48.231,202.813H45.68a1,1,0,0,1,0-2h2.551a1,1,0,0,1,0,2Z" fill="#b0b0b0"/>
    </g>
    <g id="Group_1115" data-name="Group 1115">
      <path id="Path_531" data-name="Path 531" d="M63.784,183.165a1,1,0,0,1-1-1v-2.551a1,1,0,1,1,2,0v2.551A1,1,0,0,1,63.784,183.165Z" fill="#b0b0b0"/>
      <path id="Path_532" data-name="Path 532" d="M63.784,190.388a1,1,0,0,1-1-1v-2.55a1,1,0,1,1,2,0v2.55A1,1,0,0,1,63.784,190.388Z" fill="#b0b0b0"/>
      <path id="Path_533" data-name="Path 533" d="M68.671,185.5h-2.55a1,1,0,0,1,0-2h2.55a1,1,0,0,1,0,2Z" fill="#b0b0b0"/>
      <path id="Path_534" data-name="Path 534" d="M61.448,185.5H58.9a1,1,0,0,1,0-2h2.551a1,1,0,0,1,0,2Z" fill="#b0b0b0"/>
    </g>
    <circle id="Ellipse_51" data-name="Ellipse 51" cx="2.078" cy="2.078" r="2.078" transform="translate(113.081 209.685)" fill="#b0b0b0" stroke="#b0b0b0" stroke-width="1"/>
    <path id="Path_535" data-name="Path 535" d="M88.88,228.064l1.267,4.091a2.746,2.746,0,1,0,1.878-.5.048.048,0,0,0-.012,0l.648-3.7" fill="#b0b0b0" stroke="#b0b0b0" stroke-miterlimit="10" stroke-width="1"/>
    <path id="Path_536" data-name="Path 536" d="M100.583,197.58l1.093-3.636a2.435,2.435,0,1,0-1.63-.56l.008.006-2.305,2.4" fill="#b0b0b0" stroke="#b0b0b0" stroke-miterlimit="10" stroke-width="0.887"/>
    <path id="Path_537" data-name="Path 537" d="M82.087,194.963l-3.125-2.155a2.435,2.435,0,1,0-1.033,1.38l.008-.007,1.574,2.93" fill="#b0b0b0" stroke="#b0b0b0" stroke-miterlimit="10" stroke-width="0.887"/>
    <path id="Path_586" data-name="Path 586" d="M151.171,126.989a3.441,3.441,0,1,1,3.406-3.441A3.427,3.427,0,0,1,151.171,126.989Zm0-5.064a1.624,1.624,0,1,0,1.589,1.623A1.608,1.608,0,0,0,151.171,121.925Z" transform="translate(3.071 90.342)" fill="#b0b0b0" stroke="#b0b0b0" stroke-width="1"/>
  </g>
</svg>
