<svg xmlns="http://www.w3.org/2000/svg" width="96.547" height="26.453" viewBox="0 0 96.547 26.453">
  <g id="Group_1197" data-name="Group 1197" transform="translate(-774.29 -4124.982)">
    <path id="Path_587" data-name="Path 587" d="M179.576,222.666H157.371l-.02,0h-15.2a1.157,1.157,0,1,1,0-2.314h23.713a3.608,3.608,0,1,0,0-7.217h-15.12a1.226,1.226,0,1,0,0,2.451h15.12a1.157,1.157,0,0,1,0,2.314H142.154a3.609,3.609,0,1,0,0,7.218h22.2l.02,0h15.2a1.157,1.157,0,0,1,0,2.314H155.862a3.609,3.609,0,0,0,0,7.218h8.81l.023,0h1.163a1.158,1.158,0,0,1,0,2.315H87.863a1.226,1.226,0,1,0,0,2.451h77.995a3.608,3.608,0,1,0,0-7.217h-7.426l-.024,0h-2.546a1.157,1.157,0,0,1,0-2.314h23.714a3.609,3.609,0,0,0,0-7.218Z" transform="translate(687.652 3911.844)" fill="#FFFFFF"/>
    <path id="Path_596" data-name="Path 596" d="M175.089,239.591a3.441,3.441,0,1,1,3.406-3.441A3.427,3.427,0,0,1,175.089,239.591Zm0-5.064a1.623,1.623,0,1,0,1.589,1.623A1.608,1.608,0,0,0,175.089,234.527Z" transform="translate(687.652 3911.844)" fill="#FFFFFF"/>
  </g>
</svg>
