<svg xmlns="http://www.w3.org/2000/svg" width="11.774" height="11.774" viewBox="0 0 11.774 11.774">
  <g id="Group_1196" data-name="Group 1196" transform="translate(-134.62 -241.619)">
    <path id="Path_597" data-name="Path 597" d="M140.507,246.17a1,1,0,0,1-1-1v-2.551a1,1,0,0,1,2,0v2.551A1,1,0,0,1,140.507,246.17Z" fill="#FFFFFF"/>
    <path id="Path_598" data-name="Path 598" d="M140.507,253.393a1,1,0,0,1-1-1v-2.551a1,1,0,0,1,2,0v2.551A1,1,0,0,1,140.507,253.393Z" fill="#FFFFFF"/>
    <path id="Path_599" data-name="Path 599" d="M145.394,248.506h-2.551a1,1,0,0,1,0-2h2.551a1,1,0,0,1,0,2Z" fill="#FFFFFF"/>
    <path id="Path_600" data-name="Path 600" d="M138.171,248.506H135.62a1,1,0,0,1,0-2h2.551a1,1,0,0,1,0,2Z" fill="#FFFFFF"/>
  </g>
</svg>
