<svg id="Group_968" data-name="Group 968" xmlns="http://www.w3.org/2000/svg" width="14" height="14" viewBox="0 0 14 14">
  <g id="Path_281" data-name="Path 281" transform="translate(0 7.206)" fill="#fff">
    <path d="M 7 6.293939113616943 C 5.232279777526855 6.293939113616943 3.522840023040771 6.11816930770874 2.309989929199219 5.811699390411377 C 0.9740300178527832 5.474119186401367 0.5 5.057899475097656 0.5 4.804039478302002 C 0.5 2.430779218673706 2.559469938278198 0.4999993443489075 5.090909957885742 0.4999993443489075 L 8.909090042114258 0.4999993443489075 C 11.44052982330322 0.4999993443489075 13.5 2.430779218673706 13.5 4.804039478302002 C 13.5 5.057899475097656 13.02597045898438 5.474119186401367 11.69001007080078 5.811699390411377 C 10.47716045379639 6.11816930770874 8.767720222473145 6.293939113616943 7 6.293939113616943 Z" stroke="none"/>
    <path d="M 5.090909957885742 0.9999995231628418 C 2.863394737243652 0.9999995231628418 1.045990943908691 2.664002895355225 1.000860214233398 4.725440979003906 C 1.133242607116699 4.86041259765625 1.640060424804688 5.171460151672363 2.868069648742676 5.426809310913086 C 4.006640434265137 5.663559436798096 5.47404956817627 5.793939590454102 7 5.793939590454102 C 8.525949478149414 5.793939590454102 9.99336051940918 5.663559436798096 11.13193035125732 5.426809310913086 C 12.35993957519531 5.171460151672363 12.8667573928833 4.86041259765625 12.9991397857666 4.725440979003906 C 12.95400810241699 2.664002895355225 11.13660621643066 0.9999995231628418 8.909090042114258 0.9999995231628418 L 5.090909957885742 0.9999995231628418 M 5.090909957885742 -4.76837158203125e-07 L 8.909090042114258 -4.76837158203125e-07 C 11.7207202911377 -4.76837158203125e-07 14 2.150839328765869 14 4.804039001464844 C 14 6.13063907623291 10.5 6.793939590454102 7 6.793939590454102 C 3.5 6.793939590454102 0 6.13063907623291 0 4.804039001464844 C 0 2.150839328765869 2.279279708862305 -4.76837158203125e-07 5.090909957885742 -4.76837158203125e-07 Z" stroke="none"/>
  </g>
  <g id="Ellipse_9" data-name="Ellipse 9" transform="translate(2.864)" fill="#fff" stroke="#000" stroke-width="1">
    <ellipse cx="4.455" cy="4.204" rx="4.455" ry="4.204" stroke="none"/>
    <ellipse cx="4.455" cy="4.204" rx="3.955" ry="3.704" fill="none"/>
  </g>
</svg>
